<svg xmlns="http://www.w3.org/2000/svg" xmlns:xlink="http://www.w3.org/1999/xlink" width="500" zoomAndPan="magnify" viewBox="0 0 375 374.999991" height="500" preserveAspectRatio="xMidYMid meet" version="1.0"><defs><g/><clipPath id="94b0778251"><path d="M 129 89.042969 L 246.28125 89.042969 L 246.28125 239.042969 L 129 239.042969 Z M 129 89.042969 " clip-rule="nonzero"/></clipPath></defs><g clip-path="url(#94b0778251)"><path fill="#f7fbfa" d="M 129.871094 99.980469 C 128.558594 125.289062 156.539062 173.492188 170.132812 195.359375 C 170.214844 195.492188 170.378906 195.550781 170.527344 195.5 C 170.679688 195.449219 170.773438 195.304688 170.757812 195.148438 C 168.421875 168.394531 161.042969 145.09375 181.84375 118.136719 C 181.847656 118.132812 181.851562 118.128906 181.855469 118.125 C 184.054688 114.984375 186.21875 112.03125 188.542969 108.867188 C 191.628906 104.660156 194.992188 100.078125 198.640625 94.8125 C 198.730469 94.679688 198.71875 94.503906 198.609375 94.386719 C 198.5 94.269531 198.332031 94.242188 198.191406 94.320312 C 176.730469 106.652344 150.316406 135.121094 131.613281 102.164062 C 131.613281 102.15625 131.609375 102.152344 131.605469 102.144531 C 131.234375 101.390625 130.875 100.628906 130.523438 99.859375 C 130.457031 99.714844 130.304688 99.636719 130.148438 99.667969 C 129.992188 99.699219 129.882812 99.824219 129.871094 99.980469 Z M 179.402344 132.246094 C 179.277344 132.246094 179.171875 132.183594 179.105469 132.078125 C 179.042969 131.96875 179.042969 131.84375 179.109375 131.734375 C 180.839844 128.765625 182.75 125.789062 184.757812 122.855469 C 184.828125 122.75 184.945312 122.695312 185.070312 122.707031 C 187.511719 122.964844 189.878906 123.390625 192.242188 124.003906 C 192.347656 124.03125 192.429688 124.101562 192.472656 124.203125 C 192.511719 124.308594 192.503906 124.414062 192.449219 124.507812 C 190.800781 127.238281 189.25 130.007812 187.824219 132.8125 C 187.753906 132.949219 187.605469 133.019531 187.457031 132.992188 C 184.800781 132.472656 182.101562 132.222656 179.402344 132.246094 Z M 140.03125 177.667969 C 141.15625 186.066406 144.949219 194.179688 151.414062 200.644531 C 167.0625 216.292969 192.429688 216.292969 208.078125 200.644531 C 221.40625 187.316406 223.546875 166.628906 213.671875 150.964844 C 213.617188 150.882812 213.605469 150.789062 213.628906 150.691406 C 213.65625 150.597656 213.71875 150.523438 213.804688 150.480469 C 216.523438 149.125 219.386719 147.917969 222.328125 146.835938 C 222.480469 146.777344 222.652344 146.839844 222.738281 146.980469 C 233.382812 165.015625 231.609375 187.988281 218.125 204.183594 C 218.015625 204.320312 218.023438 204.519531 218.148438 204.640625 L 226.574219 213.070312 C 226.707031 213.203125 226.921875 213.203125 227.054688 213.070312 L 228.167969 211.957031 C 228.390625 211.734375 228.769531 211.734375 228.992188 211.957031 L 246.300781 229.269531 C 246.421875 229.386719 246.480469 229.535156 246.480469 229.679688 L 246.46875 229.679688 C 246.46875 229.832031 246.414062 229.980469 246.300781 230.09375 L 237.523438 238.871094 C 237.414062 238.980469 237.265625 239.039062 237.113281 239.039062 L 237.113281 239.046875 C 236.96875 239.046875 236.820312 238.988281 236.699219 238.871094 L 219.390625 221.558594 C 219.167969 221.335938 219.167969 220.957031 219.390625 220.734375 L 220.5 219.625 C 220.632812 219.492188 220.632812 219.277344 220.5 219.144531 L 212.074219 210.714844 C 211.949219 210.589844 211.753906 210.582031 211.617188 210.695312 C 202.402344 218.363281 191.074219 222.199219 179.746094 222.199219 C 153.457031 222.199219 131.664062 201.789062 129.964844 175.574219 C 129.304688 165.433594 131.726562 155.132812 137.222656 146.195312 C 137.292969 146.082031 137.410156 146.023438 137.539062 146.035156 C 137.671875 146.042969 137.777344 146.121094 137.828125 146.242188 C 139.335938 149.84375 140.941406 153.425781 142.617188 156.933594 C 142.660156 157.023438 142.660156 157.117188 142.625 157.207031 C 139.972656 163.722656 139.109375 170.792969 140.03125 177.667969 Z M 224.347656 117.121094 C 224.347656 125.082031 234.015625 129.085938 239.644531 123.457031 C 245.273438 117.828125 241.265625 108.164062 233.308594 108.164062 C 228.359375 108.164062 224.347656 112.175781 224.347656 117.121094 Z M 213.746094 103.640625 C 213.84375 103.523438 214.003906 103.484375 214.144531 103.546875 C 214.285156 103.609375 214.367188 103.75 214.34375 103.902344 C 212.917969 114.40625 216.339844 122.152344 220.171875 126.863281 C 224.023438 131.597656 228.308594 133.273438 237.804688 136.679688 C 237.945312 136.730469 238.035156 136.863281 238.027344 137.015625 C 238.019531 137.167969 237.917969 137.292969 237.769531 137.328125 C 227.039062 139.960938 213.097656 143.730469 206.570312 148.957031 C 194.238281 158.835938 189.238281 173.96875 183.386719 191.339844 C 183.332031 191.5 183.175781 191.59375 183.011719 191.566406 C 182.847656 191.542969 182.726562 191.40625 182.722656 191.238281 C 182.449219 178.179688 183.394531 157.300781 187.523438 146.125 C 192.4375 132.816406 200.851562 119.289062 213.746094 103.640625 Z M 147.078125 98.777344 C 147.078125 93.394531 151.4375 89.035156 156.820312 89.035156 C 165.472656 89.035156 169.824219 99.546875 163.707031 105.664062 C 157.585938 111.78125 147.078125 107.429688 147.078125 98.777344 Z M 147.078125 98.777344 " fill-opacity="1" fill-rule="evenodd"/></g><g fill="#f7fbfa" fill-opacity="1"><g transform="translate(87.633536, 289.015513)"><g><path d="M 26.390625 -0.875 C 26.503906 -0.613281 26.503906 -0.394531 26.390625 -0.21875 C 26.285156 -0.0507812 26.085938 0.03125 25.796875 0.03125 L 21.9375 0.03125 C 21.726562 0.03125 21.539062 -0.0351562 21.375 -0.171875 C 21.21875 -0.304688 21.097656 -0.46875 21.015625 -0.65625 L 19.921875 -3.3125 L 7.40625 -3.3125 L 6.3125 -0.6875 C 6.226562 -0.488281 6.109375 -0.320312 5.953125 -0.1875 C 5.796875 -0.0507812 5.601562 0.015625 5.375 0.015625 L 1.546875 0.015625 C 1.242188 0.015625 1.035156 -0.0664062 0.921875 -0.234375 C 0.804688 -0.398438 0.8125 -0.617188 0.9375 -0.890625 L 12.53125 -26.90625 C 12.632812 -27.125 12.773438 -27.296875 12.953125 -27.421875 C 13.140625 -27.546875 13.332031 -27.609375 13.53125 -27.609375 L 13.75 -27.609375 C 13.96875 -27.609375 14.160156 -27.539062 14.328125 -27.40625 C 14.503906 -27.269531 14.644531 -27.097656 14.75 -26.890625 Z M 9.1875 -7.65625 L 18.140625 -7.65625 L 13.671875 -18.515625 Z M 9.1875 -7.65625 "/></g></g></g><g fill="#f7fbfa" fill-opacity="1"><g transform="translate(118.623044, 289.015513)"><g/></g></g><g fill="#f7fbfa" fill-opacity="1"><g transform="translate(133.847422, 289.015513)"><g><path d="M 11.90625 -27.25 C 13.65625 -27.25 15.257812 -26.984375 16.71875 -26.453125 C 18.175781 -25.921875 19.441406 -25.171875 20.515625 -24.203125 C 21.597656 -23.234375 22.429688 -22.085938 23.015625 -20.765625 C 23.609375 -19.453125 23.90625 -18.015625 23.90625 -16.453125 C 23.90625 -14.878906 23.609375 -13.4375 23.015625 -12.125 C 22.429688 -10.820312 21.597656 -9.691406 20.515625 -8.734375 C 19.441406 -7.785156 18.175781 -7.050781 16.71875 -6.53125 C 15.257812 -6.007812 13.65625 -5.75 11.90625 -5.75 L 8.328125 -5.75 L 8.328125 -0.765625 C 8.328125 -0.546875 8.253906 -0.359375 8.109375 -0.203125 C 7.960938 -0.0546875 7.757812 0.015625 7.5 0.015625 L 4.046875 0.015625 C 3.796875 0.015625 3.597656 -0.0507812 3.453125 -0.1875 C 3.316406 -0.332031 3.25 -0.523438 3.25 -0.765625 L 3.25 -26.453125 C 3.25 -26.691406 3.320312 -26.882812 3.46875 -27.03125 C 3.613281 -27.175781 3.804688 -27.25 4.046875 -27.25 L 5.90625 -27.25 C 6.269531 -27.25 6.601562 -27.25 6.90625 -27.25 C 7.207031 -27.25 7.4375 -27.25 7.59375 -27.25 Z M 11.5625 -10.203125 C 12.632812 -10.203125 13.609375 -10.351562 14.484375 -10.65625 C 15.367188 -10.957031 16.140625 -11.382812 16.796875 -11.9375 C 17.453125 -12.5 17.957031 -13.160156 18.3125 -13.921875 C 18.664062 -14.691406 18.84375 -15.546875 18.84375 -16.484375 C 18.84375 -17.398438 18.664062 -18.238281 18.3125 -19 C 17.957031 -19.769531 17.453125 -20.4375 16.796875 -21 C 16.140625 -21.570312 15.367188 -22.015625 14.484375 -22.328125 C 13.609375 -22.640625 12.632812 -22.796875 11.5625 -22.796875 L 8.328125 -22.796875 L 8.328125 -10.203125 Z M 11.5625 -10.203125 "/></g></g></g><g fill="#f7fbfa" fill-opacity="1"><g transform="translate(162.971658, 289.015513)"><g/></g></g><g fill="#f7fbfa" fill-opacity="1"><g transform="translate(178.196036, 289.015513)"><g><path d="M 11.90625 -27.25 C 13.65625 -27.25 15.257812 -26.984375 16.71875 -26.453125 C 18.175781 -25.921875 19.441406 -25.171875 20.515625 -24.203125 C 21.597656 -23.234375 22.429688 -22.085938 23.015625 -20.765625 C 23.609375 -19.453125 23.90625 -18.015625 23.90625 -16.453125 C 23.90625 -14.878906 23.609375 -13.4375 23.015625 -12.125 C 22.429688 -10.820312 21.597656 -9.691406 20.515625 -8.734375 C 19.441406 -7.785156 18.175781 -7.050781 16.71875 -6.53125 C 15.257812 -6.007812 13.65625 -5.75 11.90625 -5.75 L 8.328125 -5.75 L 8.328125 -0.765625 C 8.328125 -0.546875 8.253906 -0.359375 8.109375 -0.203125 C 7.960938 -0.0546875 7.757812 0.015625 7.5 0.015625 L 4.046875 0.015625 C 3.796875 0.015625 3.597656 -0.0507812 3.453125 -0.1875 C 3.316406 -0.332031 3.25 -0.523438 3.25 -0.765625 L 3.25 -26.453125 C 3.25 -26.691406 3.320312 -26.882812 3.46875 -27.03125 C 3.613281 -27.175781 3.804688 -27.25 4.046875 -27.25 L 5.90625 -27.25 C 6.269531 -27.25 6.601562 -27.25 6.90625 -27.25 C 7.207031 -27.25 7.4375 -27.25 7.59375 -27.25 Z M 11.5625 -10.203125 C 12.632812 -10.203125 13.609375 -10.351562 14.484375 -10.65625 C 15.367188 -10.957031 16.140625 -11.382812 16.796875 -11.9375 C 17.453125 -12.5 17.957031 -13.160156 18.3125 -13.921875 C 18.664062 -14.691406 18.84375 -15.546875 18.84375 -16.484375 C 18.84375 -17.398438 18.664062 -18.238281 18.3125 -19 C 17.957031 -19.769531 17.453125 -20.4375 16.796875 -21 C 16.140625 -21.570312 15.367188 -22.015625 14.484375 -22.328125 C 13.609375 -22.640625 12.632812 -22.796875 11.5625 -22.796875 L 8.328125 -22.796875 L 8.328125 -10.203125 Z M 11.5625 -10.203125 "/></g></g></g><g fill="#f7fbfa" fill-opacity="1"><g transform="translate(207.320266, 289.015513)"><g/></g></g><g fill="#f7fbfa" fill-opacity="1"><g transform="translate(222.544637, 289.015513)"><g><path d="M 20.625 -4.453125 C 21.019531 -4.453125 21.21875 -4.25 21.21875 -3.84375 L 21.21875 -0.609375 C 21.21875 -0.203125 21.019531 0 20.625 0 L 3.859375 0 C 3.453125 0 3.25 -0.203125 3.25 -0.609375 L 3.25 -26.671875 C 3.25 -27.078125 3.453125 -27.28125 3.859375 -27.28125 L 7.734375 -27.28125 C 8.128906 -27.28125 8.328125 -27.078125 8.328125 -26.671875 L 8.328125 -4.453125 Z M 20.625 -4.453125 "/></g></g></g><g fill="#f7fbfa" fill-opacity="1"><g transform="translate(248.135608, 289.015513)"><g/></g></g><g fill="#f7fbfa" fill-opacity="1"><g transform="translate(263.359979, 289.015513)"><g><path d="M 22.90625 -27.28125 C 23.175781 -27.28125 23.363281 -27.195312 23.46875 -27.03125 C 23.582031 -26.863281 23.570312 -26.628906 23.4375 -26.328125 L 14.515625 -10.78125 L 14.515625 -0.796875 C 14.515625 -0.253906 14.253906 0.015625 13.734375 0.015625 L 10.265625 0.015625 C 9.710938 0.015625 9.4375 -0.253906 9.4375 -0.796875 L 9.4375 -10.8125 L 0.515625 -26.328125 C 0.398438 -26.640625 0.398438 -26.875 0.515625 -27.03125 C 0.628906 -27.195312 0.820312 -27.28125 1.09375 -27.28125 L 5.171875 -27.28125 C 5.347656 -27.28125 5.519531 -27.210938 5.6875 -27.078125 C 5.863281 -26.953125 6.003906 -26.785156 6.109375 -26.578125 L 11.984375 -15.953125 L 17.84375 -26.59375 C 18.09375 -27.050781 18.421875 -27.28125 18.828125 -27.28125 Z M 22.90625 -27.28125 "/></g></g></g></svg>