<?xml version="1.0" encoding="UTF-8"?>
<svg version="1.1" xmlns="http://www.w3.org/2000/svg" width="500" height="500">
<path d="M0 0 C165 0 330 0 500 0 C500 165 500 330 500 500 C335 500 170 500 0 500 C0 335 0 170 0 0 Z " fill="#000000" transform="translate(0,0)"/>
<path d="M0 0 C1.31162109 0.00257813 2.62324219 0.00515625 3.97460938 0.0078125 C4.98841675 0.02956543 4.98841675 0.02956543 6.02270508 0.05175781 C8.08836941 0.09372005 10.15077672 0.09281196 12.21679688 0.0859375 C23.69168382 0.19882375 23.69168382 0.19882375 28.02734375 3.59375 C30.82148432 7.18426785 30.28111956 11.51643534 30.22265625 15.859375 C30.21982635 16.65277283 30.21699646 17.44617065 30.21408081 18.26361084 C30.20291154 20.79047917 30.17781319 23.31698932 30.15234375 25.84375 C30.14230973 27.5598907 30.13318462 29.27603698 30.125 30.9921875 C30.10298289 35.19284574 30.06847562 39.3932372 30.02734375 43.59375 C27.05734375 43.59375 24.08734375 43.59375 21.02734375 43.59375 C21.02734375 37.98375 21.02734375 32.37375 21.02734375 26.59375 C12.44734375 26.59375 3.86734375 26.59375 -4.97265625 26.59375 C-4.97265625 32.20375 -4.97265625 37.81375 -4.97265625 43.59375 C-7.61265625 43.59375 -10.25265625 43.59375 -12.97265625 43.59375 C-13.12125195 38.27364278 -13.22998631 32.95474921 -13.30224609 27.63305664 C-13.33237402 25.82392328 -13.37328588 24.01493546 -13.42529297 22.20629883 C-13.49829032 19.60201103 -13.53215023 16.99965723 -13.55859375 14.39453125 C-13.58956146 13.58913406 -13.62052917 12.78373688 -13.6524353 11.95393372 C-13.65507125 7.53101595 -13.37267424 6.05715204 -10.37182617 2.58081055 C-6.53526241 0.33806168 -4.41063634 -0.02619885 0 0 Z " fill="#907ABD" transform="translate(147.97265625,227.40625)"/>
<path d="M0 0 C8.971875 -0.1546875 8.971875 -0.1546875 18.125 -0.3125 C20.00203613 -0.35802002 21.87907227 -0.40354004 23.81298828 -0.45043945 C25.31541155 -0.46505447 26.81785475 -0.47779274 28.3203125 -0.48828125 C29.08851318 -0.51386108 29.85671387 -0.53944092 30.64819336 -0.5657959 C34.67621607 -0.56903907 37.26000657 -0.21883351 40.49707031 2.29003906 C43.22627042 5.24498651 43.73015315 6.93204375 43.72265625 10.93164062 C43.69042969 11.63482422 43.65820312 12.33800781 43.625 13.0625 C43.63466797 14.12307617 43.63466797 14.12307617 43.64453125 15.20507812 C43.57229248 18.70209145 43.26936834 20.65751739 41.0859375 23.43359375 C37.44405776 26.16841355 35.21374576 26.11807994 30.6796875 26.09765625 C29.42285156 26.09443359 28.16601562 26.09121094 26.87109375 26.08789062 C25.55238281 26.07951172 24.23367187 26.07113281 22.875 26.0625 C21.53515789 26.05748489 20.195314 26.05292201 18.85546875 26.04882812 C15.57029343 26.03701095 12.28514119 26.01907501 9 26 C9 31.61 9 37.22 9 43 C6.03 43 3.06 43 0 43 C0 28.81 0 14.62 0 0 Z " fill="#8E79BA" transform="translate(228,228)"/>
<path d="M0 0 C8.971875 -0.1546875 8.971875 -0.1546875 18.125 -0.3125 C20.00203613 -0.35802002 21.87907227 -0.40354004 23.81298828 -0.45043945 C25.31541155 -0.46505447 26.81785475 -0.47779274 28.3203125 -0.48828125 C29.08851318 -0.51386108 29.85671387 -0.53944092 30.64819336 -0.5657959 C34.67621607 -0.56903907 37.26000657 -0.21883351 40.49707031 2.29003906 C43.22627042 5.24498651 43.73015315 6.93204375 43.72265625 10.93164062 C43.69042969 11.63482422 43.65820312 12.33800781 43.625 13.0625 C43.63466797 14.12307617 43.63466797 14.12307617 43.64453125 15.20507812 C43.57229248 18.70209145 43.26936834 20.65751739 41.0859375 23.43359375 C37.44405776 26.16841355 35.21374576 26.11807994 30.6796875 26.09765625 C29.42285156 26.09443359 28.16601562 26.09121094 26.87109375 26.08789062 C25.55238281 26.07951172 24.23367187 26.07113281 22.875 26.0625 C21.53515789 26.05748489 20.195314 26.05292201 18.85546875 26.04882812 C15.57029343 26.03701095 12.28514119 26.01907501 9 26 C9 31.61 9 37.22 9 43 C6.03 43 3.06 43 0 43 C0 28.81 0 14.62 0 0 Z " fill="#8E79BA" transform="translate(181,228)"/>
<path d="M0 0 C2.64 0 5.28 0 8 0 C8.07420941 5.33851078 8.12863002 10.67672067 8.16479492 16.015625 C8.17987262 17.83143342 8.20033798 19.64720547 8.22631836 21.46289062 C8.2627468 24.07431008 8.27973638 26.68524765 8.29296875 29.296875 C8.30845261 30.10743347 8.32393646 30.91799194 8.33988953 31.75311279 C8.34087746 35.06878089 8.25298929 37.52827314 6.66918945 40.48144531 C2.95704471 43.8585903 -1.68199663 43.12824457 -6.38671875 43.09765625 C-7.20372757 43.0962413 -8.02073639 43.09482635 -8.86250305 43.09336853 C-11.47087268 43.08777294 -14.07915634 43.07522129 -16.6875 43.0625 C-18.45637897 43.05748443 -20.22525928 43.05292162 -21.99414062 43.04882812 C-26.32946019 43.03780496 -30.66471552 43.02054338 -35 43 C-35 40.03 -35 37.06 -35 34 C-23.45 34 -11.9 34 0 34 C0 31.36 0 28.72 0 26 C-0.85231201 26.02618408 -1.70462402 26.05236816 -2.58276367 26.0793457 C-5.76027127 26.16481492 -8.9371911 26.22736789 -12.11547852 26.2746582 C-13.48807102 26.29972617 -14.86053102 26.33379082 -16.23266602 26.37719727 C-18.21050696 26.43817531 -20.18934184 26.46361009 -22.16796875 26.48828125 C-23.95110474 26.52755737 -23.95110474 26.52755737 -25.77026367 26.56762695 C-29.99114253 25.82580646 -31.43700184 24.37925477 -34 21 C-34.56762695 18.59643555 -34.56762695 18.59643555 -34.48828125 16.13671875 C-34.47216797 15.25048828 -34.45605469 14.36425781 -34.43945312 13.45117188 C-34.39755859 12.53916016 -34.35566406 11.62714844 -34.3125 10.6875 C-34.28994141 9.75615234 -34.26738281 8.82480469 -34.24414062 7.86523438 C-34.18542078 5.5751604 -34.10336858 3.28842125 -34 1 C-31.36 1 -28.72 1 -26 1 C-26 6.28 -26 11.56 -26 17 C-17.42 17 -8.84 17 0 17 C0 11.39 0 5.78 0 0 Z " fill="#917BBD" transform="translate(357,228)"/>
<path d="M0 0 C2.64 0 5.28 0 8 0 C8 10.89 8 21.78 8 33 C19.55 33 31.1 33 43 33 C43 35.97 43 38.94 43 42 C37.67985484 42.12383064 32.36055286 42.21444676 27.03930664 42.2746582 C25.23023868 42.2997639 23.42127178 42.33385595 21.61254883 42.37719727 C19.00837249 42.43802579 16.40553969 42.46624809 13.80078125 42.48828125 C12.99538406 42.51408768 12.18998688 42.5398941 11.36018372 42.56648254 C7.32001583 42.56848908 5.43370923 42.28642763 1.98046875 40.00585938 C-0.66839453 35.98554321 -0.64335273 33.12618105 -0.48828125 28.41796875 C-0.48120651 27.60378983 -0.47413177 26.7896109 -0.46684265 25.95075989 C-0.43895598 23.36205357 -0.37623316 20.77554727 -0.3125 18.1875 C-0.2874095 16.42776572 -0.26459764 14.66799737 -0.24414062 12.90820312 C-0.18914872 8.60462704 -0.10291992 4.3026859 0 0 Z " fill="#917BBD" transform="translate(276,229)"/>
<path d="M0 0 C8.58 0 17.16 0 26 0 C26 2.64 26 5.28 26 8 C17.42 8 8.84 8 0 8 C0 5.36 0 2.72 0 0 Z " fill="#020203" transform="translate(237,237)"/>
<path d="M0 0 C8.58 0 17.16 0 26 0 C26 2.64 26 5.28 26 8 C17.42 8 8.84 8 0 8 C0 5.36 0 2.72 0 0 Z " fill="#020203" transform="translate(190,237)"/>
<path d="M0 0 C8.25 0 16.5 0 25 0 C25 2.64 25 5.28 25 8 C16.75 8 8.5 8 0 8 C0 5.36 0 2.72 0 0 Z " fill="#000000" transform="translate(144,237)"/>
</svg>
