<?xml version="1.0" encoding="UTF-8"?>
<svg version="1.1" xmlns="http://www.w3.org/2000/svg" width="150" height="78">
<path d="M0 0 C2.475 0.495 2.475 0.495 5 1 C5 2.65 5 4.3 5 6 C8.3 6 11.6 6 15 6 C15.23704743 11.8076621 15.27264035 17.49225893 11.1875 22 C8.39571626 23.27624399 6.88563065 22.88172048 4 22 C3.67 20.35 3.34 18.7 3 17 C1.35 17 -0.3 17 -2 17 C-2 16.34 -2 15.68 -2 15 C-5.51202512 16.20728609 -5.51202512 16.20728609 -9 18 C-10.04289755 20.06890419 -10.04289755 20.06890419 -10 22 C-11.65 22 -13.3 22 -15 22 C-15 20.02 -15 18.04 -15 16 C-17.50965614 16.70339566 -17.50965614 16.70339566 -20 18 C-20.88693303 20.04105639 -20.88693303 20.04105639 -21 22 C-22.65 22 -24.3 22 -26 22 C-26 20.35 -26 18.7 -26 17 C-27.32 17 -28.64 17 -30 17 C-30 16.01 -30 15.02 -30 14 C-30.391875 14.495 -30.78375 14.99 -31.1875 15.5 C-33.55091715 17.45593143 -35.01435003 17.24207973 -38 17 C-36.90301833 11.30860098 -35.45946923 6.25432063 -33 1 C-30.36 1 -27.72 1 -25 1 C-24.67 2.65 -24.34 4.3 -24 6 C-17.07 6 -10.14 6 -3 6 C-3 6.66 -3 7.32 -3 8 C-2.34 8 -1.68 8 -1 8 C-1.020625 7.05125 -1.04125 6.1025 -1.0625 5.125 C-1 2 -1 2 0 0 Z M-31 8 C-30 10 -30 10 -30 10 Z M3 8 C3 9.65 3 11.3 3 13 C3.33 13 3.66 13 4 13 C4 11.35 4 9.7 4 8 C3.67 8 3.34 8 3 8 Z M9 8 C9 9.65 9 11.3 9 13 C9.33 13 9.66 13 10 13 C10 11.35 10 9.7 10 8 C9.67 8 9.34 8 9 8 Z M-14 10 C-13 13 -13 13 -13 13 Z M-3 11 C-2 14 -2 14 -2 14 Z " fill="#64172A" transform="translate(96,28)"/>
<path d="M0 0 C4.16310164 1.9061022 7.1247243 5.52684394 10.31689453 8.73022461 C11.07035156 9.45532227 11.82380859 10.18041992 12.60009766 10.92749023 C13.30714844 11.63196289 14.01419922 12.33643555 14.74267578 13.06225586 C15.39276611 13.70525635 16.04285645 14.34825684 16.71264648 15.01074219 C18.00439453 16.91772461 18.00439453 16.91772461 17.80981445 19.02978516 C17.00439453 20.91772461 17.00439453 20.91772461 15.37939453 22.98022461 C14.92564453 23.61959961 14.47189453 24.25897461 14.00439453 24.91772461 C14.49939453 26.40272461 14.49939453 26.40272461 15.00439453 27.91772461 C14.34439453 27.91772461 13.68439453 27.91772461 13.00439453 27.91772461 C13.00439453 28.57772461 13.00439453 29.23772461 13.00439453 29.91772461 C13.66439453 29.91772461 14.32439453 29.91772461 15.00439453 29.91772461 C14.69189453 31.85522461 14.69189453 31.85522461 14.00439453 33.91772461 C12.51939453 34.41272461 12.51939453 34.41272461 11.00439453 34.91772461 C10.67439453 34.25772461 10.34439453 33.59772461 10.00439453 32.91772461 C5.78694052 34.04481681 5.78694052 34.04481681 2.37939453 36.60522461 C1.92564453 37.03834961 1.47189453 37.47147461 1.00439453 37.91772461 C-4.40546624 37.31782494 -7.65282347 32.813379 -11.30810547 29.16772461 C-12.0615625 28.45100586 -12.81501953 27.73428711 -13.59130859 26.99584961 C-14.29835938 26.29459961 -15.00541016 25.59334961 -15.73388672 24.87084961 C-16.38397705 24.23308594 -17.03406738 23.59532227 -17.70385742 22.93823242 C-18.99560547 20.91772461 -18.99560547 20.91772461 -18.91552734 18.42211914 C-17.23198132 13.83883488 -13.60418673 10.91292364 -10.18310547 7.54272461 C-9.45800781 6.7937793 -8.73291016 6.04483398 -7.98583984 5.27319336 C-7.28136719 4.5706543 -6.57689453 3.86811523 -5.85107422 3.14428711 C-4.88657349 2.17869873 -4.88657349 2.17869873 -3.90258789 1.19360352 C-1.99560547 -0.08227539 -1.99560547 -0.08227539 0 0 Z M-0.99560547 3.91772461 C-1.32560547 4.57772461 -1.65560547 5.23772461 -1.99560547 5.91772461 C-1.00560547 5.58772461 -0.01560547 5.25772461 1.00439453 4.91772461 C0.34439453 4.58772461 -0.31560547 4.25772461 -0.99560547 3.91772461 Z M-3.99560547 6.91772461 C-7.29560547 10.54772461 -10.59560547 14.17772461 -13.99560547 17.91772461 C-12.49560547 21.91772461 -12.49560547 21.91772461 -9.99560547 22.91772461 C-6.23206511 18.65731235 -2.49678585 14.3992355 1.00439453 9.91772461 C0.01439453 9.58772461 -0.97560547 9.25772461 -1.99560547 8.91772461 C-2.65560547 8.25772461 -3.31560547 7.59772461 -3.99560547 6.91772461 Z M2.00439453 6.91772461 C2.00439453 7.57772461 2.00439453 8.23772461 2.00439453 8.91772461 C2.66439453 8.58772461 3.32439453 8.25772461 4.00439453 7.91772461 C3.34439453 7.58772461 2.68439453 7.25772461 2.00439453 6.91772461 Z M5.00439453 9.91772461 C4.59576172 10.6331543 4.18712891 11.34858398 3.76611328 12.08569336 C1.78012889 15.27824033 -0.49277232 17.60977024 -3.18310547 20.23022461 C-4.08416016 21.11323242 -4.98521484 21.99624023 -5.91357422 22.90600586 C-6.60064453 23.56987305 -7.28771484 24.23374023 -7.99560547 24.91772461 C-7.06907846 26.09312457 -6.1289716 27.25783038 -5.18310547 28.41772461 C-4.66103516 29.06741211 -4.13896484 29.71709961 -3.60107422 30.38647461 C-2.00355714 32.26281589 -2.00355714 32.26281589 1.00439453 31.91772461 C1.99439453 31.25772461 2.98439453 30.59772461 4.00439453 29.91772461 C3.01439453 26.94772461 2.02439453 23.97772461 1.00439453 20.91772461 C3.97439453 21.90772461 6.94439453 22.89772461 10.00439453 23.91772461 C10.99439453 22.59772461 11.98439453 21.27772461 13.00439453 19.91772461 C11.33411161 15.96978316 8.82483803 13.09976343 6.00439453 9.91772461 C5.67439453 9.91772461 5.34439453 9.91772461 5.00439453 9.91772461 Z " fill="#61172A" transform="translate(33.99560546875,14.082275390625)"/>
</svg>
