<?xml version="1.0" encoding="UTF-8"?>
<svg version="1.1" xmlns="http://www.w3.org/2000/svg" width="1169" height="604">
<path d="M0 0 C385.77 0 771.54 0 1169 0 C1169 199.32 1169 398.64 1169 604 C783.23 604 397.46 604 0 604 C0 404.68 0 205.36 0 0 Z " fill="#212225" transform="translate(0,0)"/>
<path d="M0 0 C7.20557271 4.67496492 13.07768842 12.20390548 18.8840332 18.47851562 C23.50083024 23.43526176 28.22984353 28.26231746 33.03515625 33.03515625 C33.64834213 33.64456055 34.26152802 34.25396484 34.89329529 34.88183594 C37.99158842 37.95741175 41.09739747 41.02506483 44.21069336 44.08544922 C45.359329 45.22221276 46.50785299 46.35908913 47.65625 47.49609375 C48.19609024 48.02243912 48.73593048 48.54878448 49.29212952 49.09107971 C50.56638142 50.35662747 51.78888016 51.67390884 53 53 C53 53.66 53 54.32 53 55 C53.556875 55.226875 54.11375 55.45375 54.6875 55.6875 C58.32122336 57.74988353 60.87579893 60.7067202 63.59082031 63.83007812 C68.74479882 69.72407485 74.19989158 75.26597703 79.75390625 80.78125 C80.5447612 81.56661133 81.33561615 82.35197266 82.1504364 83.16113281 C85.46764442 86.45049341 88.78848572 89.73613406 92.11352539 93.01757812 C94.56045223 95.43450596 97.00128767 97.85745164 99.44140625 100.28125 C100.20062881 101.02701294 100.95985138 101.77277588 101.74208069 102.5411377 C102.43377853 103.22945679 103.12547638 103.91777588 103.83813477 104.62695312 C104.45052505 105.23188599 105.06291534 105.83681885 105.69386292 106.46008301 C107 108 107 108 107 110 C107.66 110 108.32 110 109 110 C110.37939453 111.40283203 110.37939453 111.40283203 112.0078125 113.3828125 C116.35643772 118.49791391 121.09398574 123.16708993 125.875 127.875 C127.58300524 129.5575885 129.28885251 131.24237133 130.9921875 132.9296875 C131.73839355 133.66429199 132.48459961 134.39889648 133.25341797 135.15576172 C136.106082 138.16792612 136.48353041 140.71434071 136.42822266 144.86523438 C135.61967899 148.89596748 132.66605429 151.12279483 129.6875 153.75 C128.50198743 154.84688812 127.31833639 155.9457922 126.13671875 157.046875 C125.58290527 157.55283203 125.0290918 158.05878906 124.45849609 158.58007812 C122.84669336 160.07601738 122.84669336 160.07601738 121.20703125 162.390625 C120.60955078 163.18726563 120.60955078 163.18726563 120 164 C119.34 164 118.68 164 118 164 C117.72615479 164.59184082 117.45230957 165.18368164 117.17016602 165.79345703 C114.05305282 171.67129326 108.43927115 177.21580507 103 181 C99.32455316 181.78477283 97.22710256 180.75756587 94 179 C92.31333191 178.28968802 90.62584331 177.58132092 88.9375 176.875 C87.62103353 176.25839861 86.30696675 175.63648972 85 175 C86.42074324 171.754387 88.13762681 169.6373841 90.66796875 167.171875 C91.39693359 166.45386719 92.12589844 165.73585938 92.87695312 164.99609375 C93.63943359 164.25488281 94.40191406 163.51367188 95.1875 162.75 C100.15514385 157.89868432 104.98185642 153.02461888 109.4855957 147.73535156 C111 146 111 146 112.75854492 144.52246094 C113.1682251 144.02004883 113.57790527 143.51763672 114 143 C113.36465864 138.35157657 110.25039355 135.88992562 107.0234375 132.765625 C106.4199649 132.16876892 105.81649231 131.57191284 105.19473267 130.95697021 C103.26178974 129.04741783 101.31901799 127.14827073 99.375 125.25 C96.83737222 122.75902214 94.30404031 120.26373837 91.7734375 117.765625 C91.16244202 117.16331055 90.55144653 116.56099609 89.92193604 115.94042969 C86.34959988 112.39963761 82.96036497 108.77690269 79.70947266 104.93652344 C75.86486537 100.58127851 71.63512311 96.5766348 67.5 92.5 C57.33915761 82.48287532 57.33915761 82.48287532 53.53125 78.03125 C48.99066164 72.72942959 43.96684481 67.89693613 39 63 C33.44356819 57.52177534 27.94866379 52.05084898 22.86816406 46.12158203 C19.17260848 41.92472134 15.26774143 37.92755289 11.34716797 33.94213867 C10.35589791 32.92900478 9.37095855 31.9096423 8.39208984 30.88452148 C6.96047065 29.38627675 5.51035953 27.90843306 4.0546875 26.43359375 C3.20374512 25.55759521 2.35280273 24.68159668 1.47607422 23.77905273 C-0.84629145 21.74339147 -0.84629145 21.74339147 -3.61865234 22.01000977 C-6.31636657 23.13152209 -7.36890854 24.11817475 -9.15625 26.40625 C-14.40804038 32.78342404 -20.38420872 38.42827931 -26.26171875 44.22265625 C-30.10912865 48.03675524 -33.92423575 51.82526252 -37.4453125 55.9453125 C-42.10645064 61.38927928 -47.27649857 66.34609137 -52.375 71.375 C-54.36485621 73.33826571 -56.35135935 75.30483831 -58.3359375 77.2734375 C-59.64377197 78.56386963 -59.64377197 78.56386963 -60.97802734 79.88037109 C-63.03889569 81.83297741 -63.03889569 81.83297741 -64 84 C-64.66 84 -65.32 84 -66 84 C-66.23178955 84.55848633 -66.4635791 85.11697266 -66.70239258 85.69238281 C-68.34019671 88.60499328 -70.37538715 90.58190794 -72.76171875 92.921875 C-73.23060013 93.38555481 -73.69948151 93.84923462 -74.18257141 94.32696533 C-75.67951598 95.80617025 -77.18295749 97.27852701 -78.6875 98.75 C-80.65321242 100.67879311 -82.61558843 102.61089043 -84.57421875 104.546875 C-85.05378021 105.02066589 -85.53334167 105.49445679 -86.0274353 105.98260498 C-88.6267298 108.57002542 -91.11190863 111.20720862 -93.48828125 114 C-96.33129474 117.33368804 -99.38786844 120.40564519 -102.53125 123.453125 C-103.01652664 123.92578796 -103.50180328 124.39845093 -104.00178528 124.88543701 C-106.01435937 126.84384562 -108.02836209 128.80020264 -110.06054688 130.73828125 C-111.5621826 132.1736405 -113.04765828 133.62415459 -114.53125 135.078125 C-115.41361328 135.92793945 -116.29597656 136.77775391 -117.20507812 137.65332031 C-119.24018661 139.79321359 -119.24018661 139.79321359 -118.90332031 142.15161133 C-117.50595745 145.01091787 -115.42593887 147.15931383 -113.25 149.4375 C-112.74500977 149.97737549 -112.24001953 150.51725098 -111.71972656 151.07348633 C-108.06381569 154.94031514 -104.3069924 158.70378444 -100.53125 162.453125 C-100.05653259 162.92504776 -99.58181519 163.39697052 -99.0927124 163.88319397 C-96.69027849 166.26926771 -94.28096794 168.64775223 -91.86035156 171.01538086 C-90.9731543 171.89073486 -90.08595703 172.76608887 -89.171875 173.66796875 C-88.3684668 174.45453857 -87.56505859 175.2411084 -86.73730469 176.05151367 C-85 178 -85 178 -85 180 C-84.34 180 -83.68 180 -83 180 C-81.60522461 181.42041016 -81.60522461 181.42041016 -79.96484375 183.4140625 C-75.01549627 189.23727714 -69.52639476 194.48733948 -64.05664062 199.81640625 C-63.27611328 200.58597656 -62.49558594 201.35554687 -61.69140625 202.1484375 C-60.98185791 202.84114746 -60.27230957 203.53385742 -59.54125977 204.24755859 C-58 206 -58 206 -58 208 C-57.34 208 -56.68 208 -56 208 C-54.67773437 209.34570312 -54.67773437 209.34570312 -53.09375 211.28125 C-50.05388404 214.85608202 -46.86158175 218.22838144 -43.53125 221.53125 C-43.04350098 222.0156958 -42.55575195 222.5001416 -42.05322266 222.99926758 C-40.53743803 224.50150522 -39.01917456 226.00119101 -37.5 227.5 C-31.69946743 233.22277248 -25.93805416 238.91787136 -20.63623047 245.11474609 C-17.65336333 248.55158585 -14.49397324 251.8103987 -11.3125 255.0625 C-10.66216797 255.75021484 -10.01183594 256.43792969 -9.34179688 257.14648438 C-8.70951172 257.79037109 -8.07722656 258.43425781 -7.42578125 259.09765625 C-6.86286377 259.68039307 -6.29994629 260.26312988 -5.7199707 260.86352539 C-4.0685262 262.19845786 -4.0685262 262.19845786 -2.02734375 261.90234375 C0.47496847 260.78859785 1.93998674 259.41593222 3.86328125 257.46484375 C4.58580078 256.73716797 5.30832031 256.00949219 6.05273438 255.25976562 C6.79845703 254.49341797 7.54417969 253.72707031 8.3125 252.9375 C9.41368164 251.82858398 9.41368164 251.82858398 10.53710938 250.69726562 C14.67456711 246.50106847 18.65013354 242.20648906 22.48120117 237.72875977 C23.93727541 236.07139573 25.35235777 234.46854457 27 233 C27.66 233 28.32 233 29 233 C30.20284401 235.07573081 31.38705701 237.15883095 32.5625 239.25 C32.90474609 239.83652344 33.24699219 240.42304688 33.59960938 241.02734375 C36.04234084 245.41932558 36.04234084 245.41932558 35.8359375 248.25 C34.58756473 250.86341589 32.94984743 252.87289371 31 255 C30.34 255 29.68 255 29 255 C28.78174561 255.53987549 28.56349121 256.07975098 28.33862305 256.63598633 C26.54126315 259.81013112 24.12127375 262.243032 21.58203125 264.82421875 C21.04656174 265.37108841 20.51109222 265.91795807 19.95939636 266.48139954 C18.82659258 267.63305131 17.69088757 268.7818556 16.55249023 269.92797852 C14.82156734 271.67833088 13.11315391 273.44883768 11.40429688 275.22070312 C10.29820381 276.33985653 9.1908226 277.45773858 8.08203125 278.57421875 C7.57758987 279.10335373 7.0731485 279.63248871 6.55342102 280.17765808 C4.05484959 282.64584275 1.91076505 284.03370239 -1.38012695 285.27661133 C-6.88889786 284.85566053 -9.2516503 281.83507641 -13 278 C-13.76192657 277.25952423 -14.52385315 276.51904846 -15.30886841 275.75613403 C-17.87605143 273.25682421 -20.41086236 270.72778882 -22.94140625 268.19140625 C-23.86791489 267.26585434 -24.79442352 266.34030243 -25.74900818 265.38670349 C-27.69782361 263.43935145 -29.64484737 261.49023087 -31.59057617 259.53979492 C-34.06363861 257.06103605 -36.54116533 254.58679569 -39.02006626 252.1138773 C-41.41296201 249.72549855 -43.80200318 247.3332792 -46.19140625 244.94140625 C-47.07075333 244.0640834 -47.9501004 243.18676056 -48.85609436 242.28285217 C-53.16505728 237.95761381 -57.30526872 233.56507635 -61.2855072 228.93687439 C-64.3990394 225.4194955 -67.75387946 222.14444652 -71.09375 218.84375 C-71.84410522 218.0971814 -72.59446045 217.35061279 -73.36755371 216.5814209 C-75.7425992 214.21847975 -78.12086817 211.8588263 -80.5 209.5 C-83.63839217 206.38839354 -86.77332745 203.27336245 -89.90625 200.15625 C-90.6137439 199.45705444 -91.32123779 198.75785889 -92.0501709 198.03747559 C-95.31717424 194.78639843 -98.47979751 191.500952 -101.48901367 188.00878906 C-105.21144006 183.69257354 -109.20901283 179.69943578 -113.26953125 175.703125 C-114.83281213 174.15247463 -116.39595934 172.6016895 -117.95898438 171.05078125 C-120.39744699 168.63723867 -122.83749684 166.22534199 -125.2800293 163.81591797 C-127.65589756 161.47018406 -130.02556325 159.11832437 -132.39453125 156.765625 C-133.12783157 156.0457843 -133.8611319 155.3259436 -134.61665344 154.58428955 C-135.29463486 153.90968689 -135.97261627 153.23508423 -136.67114258 152.54003906 C-137.26735916 151.95127991 -137.86357574 151.36252075 -138.4778595 150.75592041 C-140.90853532 147.95192611 -141.91046498 145.70335758 -142.37890625 142.0234375 C-141.8988955 138.19324864 -140.77758068 137.1758571 -137.9375 134.625 C-135.05924552 131.99767027 -132.39330852 129.34037678 -129.86743164 126.37841797 C-125.92823562 121.85090942 -121.73421671 117.62459965 -117.46875 113.40625 C-116.67400269 112.61528931 -115.87925537 111.82432861 -115.0604248 111.00939941 C-111.69464452 107.65981427 -108.32288952 104.3162673 -104.95166016 100.97216797 C-102.47609773 98.51479061 -100.00361917 96.05433942 -97.53125 93.59375 C-96.78000854 92.85080688 -96.02876709 92.10786377 -95.25476074 91.34240723 C-91.89074201 87.99387261 -88.61997821 84.62016117 -85.52246094 81.02246094 C-81.60301329 76.47378003 -77.37575687 72.26819446 -73.109375 68.046875 C-71.86972992 66.81290985 -71.86972992 66.81290985 -70.6050415 65.55401611 C-67.98912371 62.95022021 -65.36997652 60.34971151 -62.75 57.75 C-59.28357748 54.31017407 -55.82048129 50.86704906 -52.359375 47.421875 C-51.56561462 46.63641296 -50.77185425 45.85095093 -49.95404053 45.04168701 C-49.21607239 44.30702209 -48.47810425 43.57235718 -47.71777344 42.81542969 C-47.07048279 42.17337585 -46.42319214 41.53132202 -45.75628662 40.86981201 C-43.93492606 39.01251354 -43.93492606 39.01251354 -42.39263916 36.76153564 C-41.93306824 36.18022888 -41.47349731 35.59892212 -41 35 C-40.34 35 -39.68 35 -39 35 C-38.73082764 34.40583786 -38.46165527 33.81167572 -38.18432617 33.19950867 C-36.99881545 30.99780008 -35.81331051 29.56558338 -34.05078125 27.80786133 C-33.45676514 27.21076859 -32.86274902 26.61367584 -32.25073242 25.99848938 C-31.61111572 25.3660582 -30.97149902 24.73362701 -30.3125 24.08203125 C-29.65419189 23.42418137 -28.99588379 22.76633148 -28.31762695 22.08854675 C-26.92798406 20.70192008 -25.53591638 19.31771978 -24.14160156 17.93579102 C-22.00266663 15.81514383 -19.87187332 13.68657214 -17.7421875 11.55664062 C-16.39109661 10.210464 -15.03954964 8.86474494 -13.6875 7.51953125 C-13.0478833 6.88102737 -12.4082666 6.2425235 -11.74926758 5.58467102 C-11.15525146 4.99703476 -10.56123535 4.4093985 -9.94921875 3.80395508 C-9.42674561 3.28529373 -8.90427246 2.76663239 -8.3659668 2.23225403 C-5.67346826 -0.19667922 -3.53700312 -0.37094124 0 0 Z " fill="#6C162A" transform="translate(263,112)"/>
<path d="M0 0 C16.17 0 32.34 0 49 0 C49 35.64 49 71.28 49 108 C40.09 108 31.18 108 22 108 C22 100.41 22 92.82 22 85 C9.625 85.495 9.625 85.495 -3 86 C-5.31 93.26 -7.62 100.52 -10 108 C-19.24 108 -28.48 108 -38 108 C-36.87798446 100.14589125 -36.87798446 100.14589125 -35.62475586 97.08154297 C-35.35863495 96.41088806 -35.09251404 95.74023315 -34.81832886 95.04925537 C-34.54828033 94.3730011 -34.27823181 93.69674683 -34 93 C-33.50392404 91.65076323 -33.01380449 90.29932215 -32.52954102 88.94580078 C-32.2824086 88.25793488 -32.03527618 87.57006897 -31.78065491 86.86135864 C-31.52432785 86.14656342 -31.26800079 85.43176819 -31.00390625 84.6953125 C-30.4395266 83.12627565 -29.87507112 81.55726608 -29.31054688 79.98828125 C-28.43661959 77.55773985 -27.563222 75.12701286 -26.69116211 72.69580078 C-23.83400829 64.73318808 -20.96941427 56.79415068 -17.77172852 48.96044922 C-16.74403073 46.34975223 -15.94854387 43.6992689 -15.1875 41 C-13.33432282 34.79842281 -11.04018443 28.84037737 -8.65063477 22.83227539 C-6.16557276 16.54282157 -4.00352891 10.18653915 -1.9453125 3.74609375 C-1 1 -1 1 0 0 Z " fill="#6C162B" transform="translate(496,233)"/>
<path d="M0 0 C8.25 0 16.5 0 25 0 C23.8515028 9.68019072 22.49613358 19.10343904 20.4296875 28.62890625 C19.06980023 35.36130589 18.25051746 42.13341729 19 49 C21.49005677 51.49005677 22.37470732 51.29703766 25.8125 51.3125 C26.66457031 51.32925781 27.51664063 51.34601563 28.39453125 51.36328125 C31.65525445 50.90863769 33.36753203 49.97928933 36 48 C37.16450694 45.37458429 37.16450694 45.37458429 37.6484375 42.28125 C37.87756836 41.11980469 38.10669922 39.95835937 38.34277344 38.76171875 C38.5596582 37.52035156 38.77654297 36.27898437 39 35 C39.22461914 33.74832031 39.44923828 32.49664062 39.68066406 31.20703125 C40.3576177 27.30888194 40.9971941 23.40634781 41.625 19.5 C42.05323041 16.8643438 42.48369946 14.22905949 42.9140625 11.59375 C43.0992041 10.44583984 43.2843457 9.29792969 43.47509766 8.11523438 C43.93242111 5.40107288 44.46020597 2.69897013 45 0 C53.25 0 61.5 0 70 0 C68.31114969 14.43967016 66.27959062 28.61090486 63.42138672 42.85839844 C62.89708948 45.52301916 62.43642402 48.19466131 62 50.875 C61.85046875 51.77347656 61.7009375 52.67195313 61.546875 53.59765625 C61.23130965 55.56092352 60.92137667 57.5251503 60.62695312 59.49169922 C57.81399865 78.18747615 54.72445895 95.9495942 39 108.375 C28.29624523 115.79823268 17.82681819 117.10172767 5 116 C-1.50523304 114.65016414 -5.76326121 112.00047985 -9.84375 106.78125 C-13.1044136 101.75806553 -13.62492129 97.92667288 -13 92 C-10.72034255 84.35644268 -5.41197762 78.56589176 1 74 C-0.093125 73.319375 -1.18625 72.63875 -2.3125 71.9375 C-6.05756645 69.18555846 -8.14613857 66.6244704 -9 62 C-9.70570499 51.26049907 -8.29347453 41.35051602 -6.125 30.875 C-5.71562408 28.83493522 -5.31036316 26.79409188 -4.90618896 24.75299072 C-4.5144941 22.77591283 -4.11909535 20.7995699 -3.72363281 18.82324219 C-2.82205543 14.05984753 -2.09832274 9.28140698 -1.42529297 4.48095703 C-1 2 -1 2 0 0 Z " fill="#6C162A" transform="translate(792,269)"/>
<path d="M0 0 C4.28384579 4.00047856 7.19771106 8.42774412 7.63671875 14.36328125 C7.64669308 15.97147558 7.62322166 17.58014531 7.5703125 19.1875 C7.55516602 20.04907715 7.54001953 20.9106543 7.52441406 21.79833984 C7.00328996 37.1883113 4.103008 54.45840065 -6.76953125 65.9609375 C-14.23651332 72.39120325 -22.99986328 73.20548223 -32.484375 73.17578125 C-37.21940023 72.76977129 -40.02386922 71.4147237 -43.9921875 68.875 C-43.9921875 68.215 -43.9921875 67.555 -43.9921875 66.875 C-44.6521875 66.875 -45.3121875 66.875 -45.9921875 66.875 C-46.1778125 68.73125 -46.1778125 68.73125 -46.3671875 70.625 C-46.7689743 74.24389333 -47.29123128 77.82083353 -47.90234375 81.41015625 C-48.62569495 85.69173777 -49.33556383 89.97491905 -50.02734375 94.26171875 C-50.36979167 96.36197917 -50.71223958 98.46223958 -51.0546875 100.5625 C-51.31475586 102.18575195 -51.31475586 102.18575195 -51.58007812 103.84179688 C-51.74830078 104.86724609 -51.91652344 105.89269531 -52.08984375 106.94921875 C-52.23945557 107.87307373 -52.38906738 108.79692871 -52.54321289 109.7487793 C-52.9921875 111.875 -52.9921875 111.875 -53.9921875 112.875 C-55.84588361 112.96237645 -57.70286291 112.98198153 -59.55859375 112.97265625 C-60.68330078 112.96943359 -61.80800781 112.96621094 -62.96679688 112.96289062 C-64.15080078 112.95451172 -65.33480469 112.94613281 -66.5546875 112.9375 C-67.74255859 112.93298828 -68.93042969 112.92847656 -70.15429688 112.92382812 C-73.10030976 112.91199675 -76.04622431 112.89551287 -78.9921875 112.875 C-78.415697 106.22473889 -77.53134275 99.70731799 -76.3203125 93.14453125 C-76.15751297 92.24262558 -75.99471344 91.34071991 -75.82698059 90.41148376 C-75.48037239 88.49185583 -75.13217887 86.57251356 -74.78250122 84.65344238 C-71.81517626 68.36491497 -68.96592121 52.06737925 -66.45214844 35.70239258 C-66.27071289 34.53732178 -66.08927734 33.37225098 -65.90234375 32.171875 C-65.74902588 31.16479492 -65.59570801 30.15771484 -65.43774414 29.12011719 C-64.9921875 26.875 -64.9921875 26.875 -63.9921875 25.875 C-63.63616506 23.77775857 -63.33356749 21.67138586 -63.0546875 19.5625 C-62.39341655 14.74114388 -61.70992057 9.92867373 -60.9296875 5.125 C-60.77371094 4.16078125 -60.61773438 3.1965625 -60.45703125 2.203125 C-59.9921875 -0.125 -59.9921875 -0.125 -58.9921875 -2.125 C-51.4021875 -2.125 -43.8121875 -2.125 -35.9921875 -2.125 C-35.9921875 -1.135 -35.9921875 -0.145 -35.9921875 0.875 C-34.8990625 0.215 -33.8059375 -0.445 -32.6796875 -1.125 C-22.99279713 -5.41490859 -9.30621217 -4.94499835 0 0 Z " fill="#6C162A" transform="translate(629.9921875,270.125)"/>
<path d="M0 0 C0.80308594 -0.00708984 1.60617187 -0.01417969 2.43359375 -0.02148438 C8.73068036 0.04485446 14.52509868 0.96224427 19.5234375 5.12109375 C19.96945312 5.69988281 20.41546875 6.27867187 20.875 6.875 C21.56722656 7.73931641 21.56722656 7.73931641 22.2734375 8.62109375 C28.65727203 18.07486144 25.46088075 31.8403998 23.5 42.4375 C23.39042969 43.27539062 23.28085937 44.11328125 23.16796875 44.9765625 C21.87547466 53.69734678 17.75189532 63.88961625 11.25 70.0625 C2.67434647 76.22327992 -7.16221629 77.71422868 -17.5 76.4375 C-20.85209939 75.32842261 -23.95242812 73.98507188 -26.5 71.4375 C-28.73200812 74.78551218 -28.97629268 76.6648578 -29.46484375 80.6171875 C-29.70557617 82.47730469 -29.70557617 82.47730469 -29.95117188 84.375 C-30.1919043 86.3240625 -30.1919043 86.3240625 -30.4375 88.3125 C-31.62389534 97.86225014 -33.19255112 107.08937378 -35.5 116.4375 C-43.75 116.4375 -52 116.4375 -60.5 116.4375 C-60.5 111.54875692 -60.37910148 107.94599976 -59.4765625 103.3046875 C-59.26 102.16773438 -59.0434375 101.03078125 -58.8203125 99.859375 C-58.59085938 98.68890625 -58.36140625 97.5184375 -58.125 96.3125 C-56.59204053 88.38032599 -55.17372339 80.45850964 -53.97802734 72.46826172 C-53.28822651 68.09482581 -52.39985484 63.77156649 -51.5 59.4375 C-49.44279312 49.07914192 -47.47329082 38.74268666 -46.06640625 28.2734375 C-45.29337644 23.03815972 -44.37334341 17.83333491 -43.4375 12.625 C-43.26283203 11.63830322 -43.08816406 10.65160645 -42.90820312 9.63500977 C-42.74126953 8.71776123 -42.57433594 7.8005127 -42.40234375 6.85546875 C-42.25273193 6.02813232 -42.10312012 5.2007959 -41.94897461 4.34838867 C-41.5 2.4375 -41.5 2.4375 -40.5 1.4375 C-38.79227642 1.35036169 -37.08101351 1.33049993 -35.37109375 1.33984375 C-33.81938477 1.34467773 -33.81938477 1.34467773 -32.23632812 1.34960938 C-31.14771484 1.35798828 -30.05910156 1.36636719 -28.9375 1.375 C-27.2987793 1.38176758 -27.2987793 1.38176758 -25.62695312 1.38867188 C-22.91791505 1.40050174 -20.20898401 1.41698457 -17.5 1.4375 C-17.5 2.4275 -17.5 3.4175 -17.5 4.4375 C-15.81390625 3.46103516 -15.81390625 3.46103516 -14.09375 2.46484375 C-9.32634476 0.08848529 -5.25476179 -0.13073645 0 0 Z " fill="#6C162A" transform="translate(698.5,266.5625)"/>
<path d="M0 0 C2.66210938 0.89868164 2.66210938 0.89868164 5.34375 2.16015625 C6.83237549 2.85129517 6.83237549 2.85129517 8.35107422 3.55639648 C9.90979248 4.30191772 9.90979248 4.30191772 11.5 5.0625 C13.10705811 5.81478882 13.10705811 5.81478882 14.74658203 6.58227539 C21.59213921 9.80222265 28.36399508 13.1501565 35.10546875 16.58203125 C38.54222434 18.26562407 42.03559192 19.68210158 45.60546875 21.0546875 C49.03972114 22.41046087 52.37464649 23.96151314 55.7265625 25.5078125 C58.31796336 26.68909547 60.91584211 27.84752109 63.5234375 28.9921875 C64.32265625 29.3437793 65.121875 29.69537109 65.9453125 30.05761719 C67.53534069 30.75613037 69.12644821 31.45219307 70.71875 32.14550781 C74.64954934 33.87636066 78.37371128 35.67397417 82 38 C81.70939061 41.22072055 81.45269409 42.60946269 78.95874023 44.76098633 C78.08419189 45.27943115 77.20964355 45.79787598 76.30859375 46.33203125 C75.36435547 46.90244141 74.42011719 47.47285156 73.44726562 48.06054688 C72.45404297 48.63869141 71.46082031 49.21683594 70.4375 49.8125 C69.44041016 50.40998047 68.44332031 51.00746094 67.41601562 51.62304688 C64.9521978 53.09662213 62.48046035 54.55467493 60 56 C63.2568411 58.67901445 66.55042389 61.07705613 70.125 63.3125 C71.07246094 63.90804687 72.01992188 64.50359375 72.99609375 65.1171875 C73.98738281 65.73851562 74.97867188 66.35984375 76 67 C78.06344469 68.3110143 80.12598635 69.6234513 82.1875 70.9375 C83.10917969 71.52402344 84.03085937 72.11054688 84.98046875 72.71484375 C85.64691406 73.13894531 86.31335938 73.56304687 87 74 C85.54254576 77.36335594 83.68882146 79.54534005 81.0859375 82.109375 C79.94511719 83.24052734 79.94511719 83.24052734 78.78125 84.39453125 C77.9871875 85.17183594 77.193125 85.94914062 76.375 86.75 C75.57320313 87.54277344 74.77140625 88.33554687 73.9453125 89.15234375 C71.96797154 91.10614493 69.98611091 93.05512103 68 95 C64.62887308 93.61004327 63.20758858 92.24605056 61.37890625 89.11328125 C60.91806641 88.33919922 60.45722656 87.56511719 59.98242188 86.76757812 C59.51384766 85.95740234 59.04527344 85.14722656 58.5625 84.3125 C55.25515818 78.6840556 51.87728841 73.25650533 48 68 C47.38125 68.98226562 47.38125 68.98226562 46.75 69.984375 C42.27115595 77.06254819 37.67133881 84.04759184 33 91 C30.73046875 90.9140625 30.73046875 90.9140625 28 90 C26.48657721 87.76276631 25.41286755 85.80912854 24.3125 83.375 C23.98072754 82.67858398 23.64895508 81.98216797 23.30712891 81.26464844 C19.89042047 73.99726399 16.74297433 66.60205372 13.57592773 59.22338867 C11.0638935 53.38139215 8.41319004 47.66801555 5.49609375 42.015625 C2.77348481 36.52775529 0.35878269 30.89986014 -2.09765625 25.2890625 C-3.64946015 21.7542688 -5.31186018 18.28442496 -7 14.8125 C-8.92658185 10.57532168 -9.77062507 7.62375044 -9 3 C-6.80664294 -0.77744828 -4.05259475 -0.25374853 0 0 Z " fill="#6C162A" transform="translate(291,276)"/>
<path d="M0 0 C1.5631897 0.00785522 1.5631897 0.00785522 3.15795898 0.01586914 C4.28266602 0.0190918 5.40737305 0.02231445 6.56616211 0.02563477 C7.75016602 0.03401367 8.93416992 0.04239258 10.15405273 0.05102539 C11.34192383 0.05553711 12.52979492 0.06004883 13.75366211 0.06469727 C16.69967499 0.07652864 19.64558954 0.09301252 22.59155273 0.11352539 C22.0693153 7.96512479 21.12272981 15.58411484 19.59155273 23.30102539 C19.41366211 24.24010742 19.23577148 25.17918945 19.05249023 26.14672852 C17.72673074 32.97834738 17.72673074 32.97834738 16.59155273 34.11352539 C16.45215805 35.71501548 16.35764964 37.3204028 16.27905273 38.92602539 C15.85136966 44.6488323 14.8804175 50.13140086 13.71655273 55.73852539 C9.53162103 74.75715478 9.53162103 74.75715478 8.59155273 94.11352539 C11.56155273 94.11352539 14.53155273 94.11352539 17.59155273 94.11352539 C18.02798786 107.52178227 18.02798786 107.52178227 15.59155273 112.11352539 C8.99355493 116.58313681 1.30484639 116.98472385 -6.40844727 116.11352539 C-10.72093498 115.20045796 -13.71295425 113.82685156 -16.84594727 110.61352539 C-20.74039537 104.38240843 -20.22553873 95.94868518 -19.02954102 88.87133789 C-18.69982191 87.66150244 -18.35088743 86.45673487 -17.98266602 85.25805664 C-16.89751659 81.20535572 -16.45575931 77.02082277 -15.87329102 72.87133789 C-15.40844727 70.11352539 -15.40844727 70.11352539 -14.40844727 68.11352539 C-14.05967626 65.8479793 -13.75439903 63.5756672 -13.47094727 61.30102539 C-13.29612651 59.93762064 -13.12032728 58.57434103 -12.94360352 57.21118164 C-12.85481934 56.52427246 -12.76603516 55.83736328 -12.67456055 55.12963867 C-12.28274824 52.16121116 -11.85242887 49.19956804 -11.40844727 46.23852539 C-11.26407227 45.27172852 -11.11969727 44.30493164 -10.97094727 43.30883789 C-10.54781301 40.90520022 -10.06025156 38.57238902 -9.50610352 36.19946289 C-7.80852159 28.70902031 -6.72126939 21.09336017 -5.51025391 13.51196289 C-5.18678255 11.49316137 -4.85844099 9.47519845 -4.52954102 7.45727539 C-4.33803467 6.26295898 -4.14652832 5.06864258 -3.94921875 3.83813477 C-3.21754 0.15166306 -3.21754 0.15166306 0 0 Z " fill="#6C162B" transform="translate(754.408447265625,226.886474609375)"/>
<path d="M0 0 C1.15653324 -0.00322445 2.31306648 -0.00644889 3.50464618 -0.00977105 C4.76572511 -0.00822245 6.02680404 -0.00667385 7.32609749 -0.00507832 C8.68675904 -0.00694743 10.04742005 -0.00924854 11.40808022 -0.01194364 C15.14160473 -0.01805553 18.87510682 -0.01792877 22.60863519 -0.01674926 C26.63735375 -0.0165451 30.66606514 -0.02206544 34.69478035 -0.02680683 C42.58545057 -0.03511039 50.47611332 -0.03786153 58.36678754 -0.03841921 C64.78057436 -0.03889447 71.19435872 -0.04094973 77.60814476 -0.04411983 C95.79355619 -0.05292529 113.97896172 -0.05753933 132.16437529 -0.05678936 C133.63469679 -0.05672943 133.63469679 -0.05672943 135.13472176 -0.05666828 C136.60683883 -0.05660696 136.60683883 -0.05660696 138.10869564 -0.0565444 C154.01704145 -0.05613787 169.92536359 -0.06570944 185.83370255 -0.07980665 C202.16939208 -0.09416833 218.50507007 -0.10107696 234.84076607 -0.10021287 C244.01159548 -0.09988085 253.18240008 -0.10263029 262.3532238 -0.11339092 C270.16063572 -0.12249313 277.96801157 -0.12467344 285.77542649 -0.1178815 C289.75815858 -0.114615 293.74082146 -0.11456432 297.72354698 -0.12323475 C301.37156896 -0.13109482 305.0194668 -0.12967339 308.66748573 -0.12095062 C310.60783467 -0.11868853 312.54818745 -0.12624812 314.48852146 -0.13419026 C324.33931534 -0.09519578 331.34688838 0.8045904 339.13032722 7.12863445 C339.13032722 7.45863445 339.13032722 7.78863445 339.13032722 8.12863445 C220.33032722 8.12863445 101.53032722 8.12863445 -20.86967278 8.12863445 C-14.00628813 1.26524981 -9.5935087 0.00678609 0 0 Z " fill="#181A1B" transform="translate(328.86967277526855,595.8713655471802)"/>
<path d="M0 0 C4.56794958 0.91516009 5.91589809 2.12370511 9.01856995 5.60475159 C9.64356995 8.60475159 9.64356995 8.60475159 9.01856995 11.60475159 C6.51832148 15.40142518 3.26723769 18.43938301 0.01856995 21.60475159 C-0.53830505 22.20287659 -1.09518005 22.80100159 -1.66893005 23.41725159 C-2.98143005 24.60475159 -2.98143005 24.60475159 -4.98143005 24.60475159 C-5.47643005 26.08975159 -5.47643005 26.08975159 -5.98143005 27.60475159 C-7.57518005 29.13990784 -7.57518005 29.13990784 -9.48143005 30.66725159 C-12.16249407 32.78196926 -12.16249407 32.78196926 -13.98143005 35.60475159 C-14.64143005 35.60475159 -15.30143005 35.60475159 -15.98143005 35.60475159 C-15.98143005 36.26475159 -15.98143005 36.92475159 -15.98143005 37.60475159 C-17.63145833 38.95862094 -19.29886875 40.29153301 -20.98143005 41.60475159 C-21.47643005 42.59475159 -21.47643005 42.59475159 -21.98143005 43.60475159 C-22.64143005 43.60475159 -23.30143005 43.60475159 -23.98143005 43.60475159 C-23.98143005 44.26475159 -23.98143005 44.92475159 -23.98143005 45.60475159 C-25.5556488 47.15553284 -25.5556488 47.15553284 -27.66893005 48.91725159 C-32.06854138 52.66735966 -36.10207832 56.52577496 -39.79393005 60.97975159 C-41.94060856 63.52059964 -44.17473697 65.71819689 -46.71018982 67.86915588 C-50.81508997 71.41888151 -54.6787363 75.15701025 -58.5087738 78.99928284 C-59.18315994 79.67271225 -59.85754608 80.34614166 -60.55236816 81.03997803 C-61.96102073 82.44795599 -63.36843504 83.85717382 -64.77464294 85.26759338 C-66.93422778 87.43258763 -69.09916887 89.59212414 -71.26463318 91.75123596 C-72.63800125 93.12526395 -74.01105956 94.49960164 -75.3837738 95.87428284 C-76.03160324 96.52008804 -76.67943268 97.16589325 -77.34689331 97.83126831 C-77.94163956 98.42916672 -78.5363858 99.02706512 -79.14915466 99.64308167 C-79.67351608 100.16823868 -80.1978775 100.69339569 -80.73812866 101.23446655 C-82.09394368 102.60493151 -82.09394368 102.60493151 -82.98143005 104.60475159 C-83.64143005 104.60475159 -84.30143005 104.60475159 -84.98143005 104.60475159 C-84.98143005 105.26475159 -84.98143005 105.92475159 -84.98143005 106.60475159 C-87.40312663 109.12331602 -88.92788756 109.59696359 -92.41893005 110.10475159 C-95.98143005 109.60475159 -95.98143005 109.60475159 -98.91893005 107.54225159 C-101.63721676 103.67075233 -101.79122213 102.28650258 -100.98143005 97.60475159 C-98.43869956 93.99358588 -95.32931859 90.99720542 -92.18821716 87.90577698 C-91.24246382 86.950533 -90.29820492 85.99380746 -89.35533142 85.03572083 C-86.79471554 82.44323111 -84.21249498 79.8733286 -81.62482905 77.30787206 C-78.91764794 74.61843281 -76.22760976 71.91193388 -73.53479004 69.20812988 C-69.01007231 64.67068249 -64.47080803 60.14818118 -59.92308044 55.63380432 C-54.66798343 50.41680248 -49.43858113 45.17505993 -44.22181314 39.91975218 C-39.73948539 35.40564253 -35.24363958 30.90533789 -30.73624617 26.41625589 C-28.04535472 23.73626903 -25.35939578 21.05179784 -22.68554497 18.35479927 C-20.17067706 15.81968621 -17.63925474 13.30235555 -15.09412384 10.79763794 C-13.72049119 9.43765274 -12.36400703 8.060415 -11.00811768 6.68273926 C-4.24746361 0.08368328 -4.24746361 0.08368328 0 0 Z " fill="#6C162A" transform="translate(291.98143005371094,183.39524841308594)"/>
<path d="M0 0 C9.02862132 3.40524562 17.9373152 7.02474307 26.8125 10.8125 C28.58463867 11.56563477 28.58463867 11.56563477 30.39257812 12.33398438 C33.26256439 13.55401902 36.13168441 14.77604404 39 16 C39 16.99 39 17.98 39 19 C37.05859375 20.76171875 37.05859375 20.76171875 34.4375 22.6875 C27.67068728 27.9037842 22.51651914 33.77356937 18 41 C15.49068448 37.92929999 13.95907513 34.8944968 12.44140625 31.23828125 C11.97283203 30.11873047 11.50425781 28.99917969 11.02148438 27.84570312 C10.54001953 26.67974609 10.05855469 25.51378906 9.5625 24.3125 C8.60620592 22.01661989 7.64918787 19.72104119 6.69140625 17.42578125 C6.23652832 16.33088379 5.78165039 15.23598633 5.31298828 14.10791016 C3.83361364 10.60615502 2.27928143 7.14422791 0.67944336 3.69604492 C0 2 0 2 0 0 Z " fill="#222224" transform="translate(305,299)"/>
<path d="M0 0 C2.6875 1.375 2.6875 1.375 4 4 C5.24217918 11.70446846 4.00259665 22.21586267 -0.171875 28.8671875 C-1.4375 30.1875 -1.4375 30.1875 -4 32 C-4.8971875 32.680625 -4.8971875 32.680625 -5.8125 33.375 C-9.22839687 34.35097053 -12.61184543 34.03662224 -16 33 C-17.6394043 31.77172852 -17.6394043 31.77172852 -19 30 C-19.08105469 27.71923828 -19.08105469 27.71923828 -18.671875 25.0703125 C-18.53136719 24.10996094 -18.39085937 23.14960938 -18.24609375 22.16015625 C-18.08238281 21.15855469 -17.91867187 20.15695312 -17.75 19.125 C-17.60175781 18.13113281 -17.45351563 17.13726562 -17.30078125 16.11328125 C-16.89093214 13.40392477 -16.46419935 10.70056022 -16 8 C-15.85272461 7.10466553 -15.70544922 6.20933105 -15.55371094 5.28686523 C-15 3 -15 3 -13.28125 1.21484375 C-9.06678297 -1.02950427 -4.6342964 -0.59774688 0 0 Z " fill="#222224" transform="translate(607,288)"/>
<path d="M0 0 C3.125 1.9375 3.125 1.9375 5 5 C6.49948435 12.20340521 4.50990243 21.83261483 0.7578125 28.0625 C-0.95818041 30.17449128 -2.55354307 31.77677154 -5 33 C-6.64255791 33.12114921 -8.29052478 33.17540767 -9.9375 33.1875 C-11.25041016 33.20876953 -11.25041016 33.20876953 -12.58984375 33.23046875 C-15 33 -15 33 -18 31 C-16.99929782 6.05145952 -16.99929782 6.05145952 -12.203125 1.171875 C-8.2525179 -0.92951175 -4.33997116 -0.72215998 0 0 Z " fill="#222224" transform="translate(693,288)"/>
<path d="M0 0 C1.23556641 0.01740234 1.23556641 0.01740234 2.49609375 0.03515625 C3.32238281 0.04417969 4.14867187 0.05320312 5 0.0625 C5.63808594 0.07410156 6.27617188 0.08570313 6.93359375 0.09765625 C7.05310325 12.81877819 6.75276224 25.40054473 5.93359375 38.09765625 C-0.66640625 38.09765625 -7.26640625 38.09765625 -14.06640625 38.09765625 C-12.26916276 31.19245759 -10.21364259 24.42991844 -7.91235352 17.67895508 C-6.28238223 12.85713724 -4.89576717 8.00641614 -3.64453125 3.07421875 C-2.87482764 0.44266452 -2.77163946 0.13098485 0 0 Z " fill="#222224" transform="translate(513.06640625,259.90234375)"/>
<path d="M0 0 C3.64331077 1.61924923 6.20425519 3.40851039 8 7 C8.66786547 10.84573081 8.87752866 14.37942983 6.98046875 17.8828125 C4.84579702 20.55276445 3.26005253 21.91331582 0 23 C-4.74094816 23.46632277 -7.6449125 23.73805951 -11.4375 20.6875 C-14.97549273 16.97692226 -15.34501522 14.07304647 -15.2890625 9 C-14.83126522 5.83253774 -13.24474878 4.1806131 -11 2 C-7.29017554 -0.4732163 -4.30111858 -0.54710902 0 0 Z " fill="#6B162B" transform="translate(266,159)"/>
<path d="M0 0 C1.64162109 0.00966797 1.64162109 0.00966797 3.31640625 0.01953125 C6.4375 0.1875 6.4375 0.1875 11.4375 1.1875 C11.4375 4.8175 11.4375 8.4475 11.4375 12.1875 C-0.7725 12.1875 -12.9825 12.1875 -25.5625 12.1875 C-21.04002126 6.53440158 -21.04002126 6.53440158 -17.1875 4.5 C-16.45789062 4.10425781 -15.72828125 3.70851563 -14.9765625 3.30078125 C-9.87392859 0.94762483 -5.63305569 -0.07315657 0 0 Z " fill="#008840" transform="translate(1157.5625,591.8125)"/>
<path d="M0 0 C1.64889043 4.09563106 0.36012128 7.84767602 -0.6875 11.9375 C-0.84927734 12.64068359 -1.01105469 13.34386719 -1.17773438 14.06835938 C-2.64241592 19.92159987 -4.8651055 23.576737 -10 27 C-12.9375 27.4375 -12.9375 27.4375 -16 27 C-18.4375 24.9375 -18.4375 24.9375 -20 22 C-20.26323094 17.34958664 -18.9974565 14.56065566 -16.1875 11 C-11.61077623 6.09773521 -5.88397734 3.09174507 0 0 Z " fill="#242225" transform="translate(824,337)"/>
<path d="M0 0 C0.99 0 1.98 0 3 0 C2.67 3.96 2.34 7.92 2 12 C1.67 12 1.34 12 1 12 C0.67 8.04 0.34 4.08 0 0 Z " fill="#531827" transform="translate(587,304)"/>
</svg>
